<mxfile host="Electron" modified="2024-03-04T02:24:52.598Z" agent="Mozilla/5.0 (Windows NT 10.0; Win64; x64) AppleWebKit/537.36 (KHTML, like Gecko) draw.io/23.0.2 Chrome/120.0.6099.109 Electron/28.1.0 Safari/537.36" etag="2H68BTFubpjl-WEcV64D" version="23.0.2" type="device" pages="2">
  <diagram name="Currenty" id="rb8X1lluHHyJgAT4k4c7">
    <mxGraphModel dx="1434" dy="844" grid="1" gridSize="10" guides="1" tooltips="1" connect="1" arrows="1" fold="1" page="1" pageScale="1" pageWidth="850" pageHeight="1100" math="0" shadow="0">
      <root>
        <mxCell id="0" />
        <mxCell id="1" parent="0" />
        <mxCell id="dVjktNfdw7lev-ZzLwA2-5" style="rounded=0;orthogonalLoop=1;jettySize=auto;html=1;exitX=1;exitY=0.5;exitDx=0;exitDy=0;entryX=0;entryY=0.5;entryDx=0;entryDy=0;startArrow=classic;startFill=1;fontColor=#000000;labelBorderColor=none;" parent="1" source="dVjktNfdw7lev-ZzLwA2-1" target="dVjktNfdw7lev-ZzLwA2-2" edge="1">
          <mxGeometry relative="1" as="geometry" />
        </mxCell>
        <mxCell id="dVjktNfdw7lev-ZzLwA2-6" style="rounded=0;orthogonalLoop=1;jettySize=auto;html=1;exitX=0.5;exitY=0;exitDx=0;exitDy=0;entryX=0.5;entryY=1;entryDx=0;entryDy=0;startArrow=classic;startFill=1;fontColor=#000000;labelBorderColor=none;" parent="1" source="dVjktNfdw7lev-ZzLwA2-1" target="dVjktNfdw7lev-ZzLwA2-4" edge="1">
          <mxGeometry relative="1" as="geometry" />
        </mxCell>
        <mxCell id="dVjktNfdw7lev-ZzLwA2-1" value="Web&lt;br&gt;Oh my dog" style="rounded=0;whiteSpace=wrap;html=1;fillColor=#ffe6cc;strokeColor=#d79b00;fontColor=#000000;labelBorderColor=none;" parent="1" vertex="1">
          <mxGeometry x="250" y="400" width="120" height="60" as="geometry" />
        </mxCell>
        <mxCell id="dVjktNfdw7lev-ZzLwA2-2" value="API&lt;br&gt;Oh my dog" style="rounded=0;whiteSpace=wrap;html=1;fillColor=#ffe6cc;strokeColor=#d79b00;fontColor=#000000;labelBorderColor=none;" parent="1" vertex="1">
          <mxGeometry x="450" y="400" width="120" height="60" as="geometry" />
        </mxCell>
        <mxCell id="dVjktNfdw7lev-ZzLwA2-3" value="Database&lt;br&gt;Oh My Dog" style="shape=cylinder3;whiteSpace=wrap;html=1;boundedLbl=1;backgroundOutline=1;size=15;fillColor=#ffe6cc;strokeColor=#d79b00;fontColor=#000000;labelBorderColor=none;" parent="1" vertex="1">
          <mxGeometry x="470" y="525" width="80" height="90" as="geometry" />
        </mxCell>
        <mxCell id="dVjktNfdw7lev-ZzLwA2-4" value="API&lt;br&gt;Via CEP" style="rounded=0;whiteSpace=wrap;html=1;fillColor=#d5e8d4;strokeColor=#82b366;fontColor=#000000;labelBorderColor=none;" parent="1" vertex="1">
          <mxGeometry x="250" y="260" width="120" height="60" as="geometry" />
        </mxCell>
        <mxCell id="dVjktNfdw7lev-ZzLwA2-7" style="rounded=0;orthogonalLoop=1;jettySize=auto;html=1;exitX=0.5;exitY=1;exitDx=0;exitDy=0;entryX=0.5;entryY=0;entryDx=0;entryDy=0;entryPerimeter=0;startArrow=classic;startFill=1;fontColor=#000000;labelBorderColor=none;" parent="1" source="dVjktNfdw7lev-ZzLwA2-2" target="dVjktNfdw7lev-ZzLwA2-3" edge="1">
          <mxGeometry relative="1" as="geometry" />
        </mxCell>
      </root>
    </mxGraphModel>
  </diagram>
  <diagram id="f7gdDJyknA4lF6z68Fd-" name="New">
    <mxGraphModel dx="1834" dy="844" grid="0" gridSize="10" guides="1" tooltips="1" connect="1" arrows="1" fold="1" page="0" pageScale="1" pageWidth="850" pageHeight="1100" background="#E6D0DE" math="0" shadow="0">
      <root>
        <mxCell id="0" />
        <mxCell id="1" parent="0" />
        <mxCell id="1rVGfrsxhLc0o8PD9YwX-4" value="User&lt;br&gt;API" style="rounded=0;whiteSpace=wrap;html=1;fillColor=#ffe6cc;strokeColor=#d79b00;fontColor=#000000;" parent="1" vertex="1">
          <mxGeometry x="840" y="270" width="120" height="60" as="geometry" />
        </mxCell>
        <mxCell id="1rVGfrsxhLc0o8PD9YwX-5" value="Database&lt;br&gt;User" style="shape=cylinder3;whiteSpace=wrap;html=1;boundedLbl=1;backgroundOutline=1;size=15;fillColor=#ffe6cc;strokeColor=#d79b00;fontColor=#000000;" parent="1" vertex="1">
          <mxGeometry x="860" y="400" width="80" height="90" as="geometry" />
        </mxCell>
        <mxCell id="1rVGfrsxhLc0o8PD9YwX-22" style="rounded=0;orthogonalLoop=1;jettySize=auto;html=1;exitX=1;exitY=0.5;exitDx=0;exitDy=0;entryX=0;entryY=0;entryDx=0;entryDy=0;startArrow=classic;startFill=1;endArrow=none;endFill=0;fontColor=#000000;" parent="1" source="1rVGfrsxhLc0o8PD9YwX-6" target="1rVGfrsxhLc0o8PD9YwX-8" edge="1">
          <mxGeometry relative="1" as="geometry" />
        </mxCell>
        <mxCell id="1rVGfrsxhLc0o8PD9YwX-6" value="API&lt;br&gt;Via CEP" style="rounded=0;whiteSpace=wrap;html=1;fillColor=#d5e8d4;strokeColor=#82b366;fontColor=#000000;" parent="1" vertex="1">
          <mxGeometry x="-80" y="240" width="120" height="60" as="geometry" />
        </mxCell>
        <mxCell id="1rVGfrsxhLc0o8PD9YwX-8" value="Web&lt;br style=&quot;border-color: var(--border-color);&quot;&gt;Oh my dog" style="ellipse;whiteSpace=wrap;html=1;aspect=fixed;fillColor=#f5f5f5;strokeColor=#666666;fontColor=#000000;" parent="1" vertex="1">
          <mxGeometry x="380" y="110" width="140" height="140" as="geometry" />
        </mxCell>
        <mxCell id="1rVGfrsxhLc0o8PD9YwX-25" style="rounded=0;orthogonalLoop=1;jettySize=auto;html=1;exitX=0.5;exitY=0;exitDx=0;exitDy=0;entryX=1;entryY=0.5;entryDx=0;entryDy=0;startArrow=classic;startFill=1;fontColor=#000000;" parent="1" source="1rVGfrsxhLc0o8PD9YwX-9" target="1rVGfrsxhLc0o8PD9YwX-8" edge="1">
          <mxGeometry relative="1" as="geometry" />
        </mxCell>
        <mxCell id="1rVGfrsxhLc0o8PD9YwX-9" value="Order&lt;br&gt;API" style="rounded=0;whiteSpace=wrap;html=1;fillColor=#ffe6cc;strokeColor=#d79b00;fontColor=#000000;" parent="1" vertex="1">
          <mxGeometry x="690" y="330" width="120" height="60" as="geometry" />
        </mxCell>
        <mxCell id="1rVGfrsxhLc0o8PD9YwX-21" style="rounded=0;orthogonalLoop=1;jettySize=auto;html=1;exitX=0.5;exitY=0;exitDx=0;exitDy=0;entryX=0;entryY=1;entryDx=0;entryDy=0;startArrow=classic;startFill=1;fontColor=#000000;" parent="1" source="1rVGfrsxhLc0o8PD9YwX-10" target="1rVGfrsxhLc0o8PD9YwX-8" edge="1">
          <mxGeometry relative="1" as="geometry" />
        </mxCell>
        <mxCell id="1rVGfrsxhLc0o8PD9YwX-10" value="Payment&lt;br&gt;API" style="rounded=0;whiteSpace=wrap;html=1;fillColor=#ffe6cc;strokeColor=#d79b00;fontColor=#000000;" parent="1" vertex="1">
          <mxGeometry x="220" y="400" width="120" height="60" as="geometry" />
        </mxCell>
        <mxCell id="1rVGfrsxhLc0o8PD9YwX-20" style="rounded=0;orthogonalLoop=1;jettySize=auto;html=1;exitX=0.5;exitY=0;exitDx=0;exitDy=0;entryX=0;entryY=0.5;entryDx=0;entryDy=0;startArrow=classic;startFill=1;fontColor=#000000;" parent="1" source="1rVGfrsxhLc0o8PD9YwX-11" target="1rVGfrsxhLc0o8PD9YwX-8" edge="1">
          <mxGeometry relative="1" as="geometry" />
        </mxCell>
        <mxCell id="1rVGfrsxhLc0o8PD9YwX-27" style="rounded=0;orthogonalLoop=1;jettySize=auto;html=1;exitX=0.5;exitY=1;exitDx=0;exitDy=0;startArrow=classic;startFill=1;fontColor=#000000;" parent="1" source="1rVGfrsxhLc0o8PD9YwX-11" target="1rVGfrsxhLc0o8PD9YwX-18" edge="1">
          <mxGeometry relative="1" as="geometry" />
        </mxCell>
        <mxCell id="1rVGfrsxhLc0o8PD9YwX-11" value="Product&lt;br&gt;API" style="rounded=0;whiteSpace=wrap;html=1;fillColor=#ffe6cc;strokeColor=#d79b00;fontColor=#000000;" parent="1" vertex="1">
          <mxGeometry x="70" y="325" width="120" height="60" as="geometry" />
        </mxCell>
        <mxCell id="1rVGfrsxhLc0o8PD9YwX-24" style="rounded=0;orthogonalLoop=1;jettySize=auto;html=1;exitX=0.5;exitY=0;exitDx=0;exitDy=0;entryX=1;entryY=1;entryDx=0;entryDy=0;startArrow=classic;startFill=1;fontColor=#000000;" parent="1" source="1rVGfrsxhLc0o8PD9YwX-12" target="1rVGfrsxhLc0o8PD9YwX-8" edge="1">
          <mxGeometry relative="1" as="geometry" />
        </mxCell>
        <mxCell id="1rVGfrsxhLc0o8PD9YwX-12" value="Promotion&lt;br&gt;API" style="rounded=0;whiteSpace=wrap;html=1;fillColor=#ffe6cc;strokeColor=#d79b00;fontColor=#000000;" parent="1" vertex="1">
          <mxGeometry x="550" y="400" width="120" height="60" as="geometry" />
        </mxCell>
        <mxCell id="1rVGfrsxhLc0o8PD9YwX-23" style="rounded=0;orthogonalLoop=1;jettySize=auto;html=1;exitX=0.5;exitY=0;exitDx=0;exitDy=0;entryX=0.5;entryY=1;entryDx=0;entryDy=0;startArrow=classic;startFill=1;fontColor=#000000;" parent="1" source="1rVGfrsxhLc0o8PD9YwX-13" target="1rVGfrsxhLc0o8PD9YwX-8" edge="1">
          <mxGeometry relative="1" as="geometry" />
        </mxCell>
        <mxCell id="1rVGfrsxhLc0o8PD9YwX-13" value="Inventory&lt;br&gt;API" style="rounded=0;whiteSpace=wrap;html=1;fillColor=#ffe6cc;strokeColor=#d79b00;fontColor=#000000;" parent="1" vertex="1">
          <mxGeometry x="390" y="430" width="120" height="60" as="geometry" />
        </mxCell>
        <mxCell id="1rVGfrsxhLc0o8PD9YwX-14" value="Database&lt;br&gt;Order" style="shape=cylinder3;whiteSpace=wrap;html=1;boundedLbl=1;backgroundOutline=1;size=15;fillColor=#ffe6cc;strokeColor=#d79b00;fontColor=#000000;" parent="1" vertex="1">
          <mxGeometry x="710" y="470" width="80" height="90" as="geometry" />
        </mxCell>
        <mxCell id="1rVGfrsxhLc0o8PD9YwX-15" value="Database&lt;br&gt;Promotion" style="shape=cylinder3;whiteSpace=wrap;html=1;boundedLbl=1;backgroundOutline=1;size=15;fillColor=#ffe6cc;strokeColor=#d79b00;fontColor=#000000;" parent="1" vertex="1">
          <mxGeometry x="570" y="540" width="80" height="90" as="geometry" />
        </mxCell>
        <mxCell id="1rVGfrsxhLc0o8PD9YwX-16" value="Database&lt;br&gt;Inventory" style="shape=cylinder3;whiteSpace=wrap;html=1;boundedLbl=1;backgroundOutline=1;size=15;fillColor=#ffe6cc;strokeColor=#d79b00;fontColor=#000000;" parent="1" vertex="1">
          <mxGeometry x="410" y="570" width="80" height="90" as="geometry" />
        </mxCell>
        <mxCell id="1rVGfrsxhLc0o8PD9YwX-17" value="Database&lt;br&gt;Payment" style="shape=cylinder3;whiteSpace=wrap;html=1;boundedLbl=1;backgroundOutline=1;size=15;fillColor=#ffe6cc;strokeColor=#d79b00;fontColor=#000000;" parent="1" vertex="1">
          <mxGeometry x="240" y="540" width="80" height="90" as="geometry" />
        </mxCell>
        <mxCell id="1rVGfrsxhLc0o8PD9YwX-18" value="Database&lt;br&gt;Product" style="shape=cylinder3;whiteSpace=wrap;html=1;boundedLbl=1;backgroundOutline=1;size=15;fillColor=#ffe6cc;strokeColor=#d79b00;fontColor=#000000;" parent="1" vertex="1">
          <mxGeometry x="90" y="480" width="80" height="90" as="geometry" />
        </mxCell>
        <mxCell id="1rVGfrsxhLc0o8PD9YwX-26" style="rounded=0;orthogonalLoop=1;jettySize=auto;html=1;exitX=0.5;exitY=0;exitDx=0;exitDy=0;entryX=1;entryY=0;entryDx=0;entryDy=0;startArrow=classic;startFill=1;fontColor=#000000;" parent="1" source="1rVGfrsxhLc0o8PD9YwX-4" target="1rVGfrsxhLc0o8PD9YwX-8" edge="1">
          <mxGeometry relative="1" as="geometry" />
        </mxCell>
        <mxCell id="1rVGfrsxhLc0o8PD9YwX-28" style="rounded=0;orthogonalLoop=1;jettySize=auto;html=1;exitX=0.5;exitY=1;exitDx=0;exitDy=0;entryX=0.5;entryY=0;entryDx=0;entryDy=0;entryPerimeter=0;startArrow=classic;startFill=1;fontColor=#000000;" parent="1" source="1rVGfrsxhLc0o8PD9YwX-10" target="1rVGfrsxhLc0o8PD9YwX-17" edge="1">
          <mxGeometry relative="1" as="geometry" />
        </mxCell>
        <mxCell id="1rVGfrsxhLc0o8PD9YwX-29" style="rounded=0;orthogonalLoop=1;jettySize=auto;html=1;exitX=0.5;exitY=1;exitDx=0;exitDy=0;entryX=0.5;entryY=0;entryDx=0;entryDy=0;entryPerimeter=0;startArrow=classic;startFill=1;fontColor=#000000;" parent="1" source="1rVGfrsxhLc0o8PD9YwX-13" target="1rVGfrsxhLc0o8PD9YwX-16" edge="1">
          <mxGeometry relative="1" as="geometry" />
        </mxCell>
        <mxCell id="1rVGfrsxhLc0o8PD9YwX-30" style="rounded=0;orthogonalLoop=1;jettySize=auto;html=1;exitX=0.5;exitY=1;exitDx=0;exitDy=0;entryX=0.5;entryY=0;entryDx=0;entryDy=0;entryPerimeter=0;startArrow=classic;startFill=1;fontColor=#000000;" parent="1" source="1rVGfrsxhLc0o8PD9YwX-12" target="1rVGfrsxhLc0o8PD9YwX-15" edge="1">
          <mxGeometry relative="1" as="geometry" />
        </mxCell>
        <mxCell id="1rVGfrsxhLc0o8PD9YwX-31" style="rounded=0;orthogonalLoop=1;jettySize=auto;html=1;exitX=0.5;exitY=1;exitDx=0;exitDy=0;entryX=0.5;entryY=0;entryDx=0;entryDy=0;entryPerimeter=0;startArrow=classic;startFill=1;fontColor=#000000;" parent="1" source="1rVGfrsxhLc0o8PD9YwX-9" target="1rVGfrsxhLc0o8PD9YwX-14" edge="1">
          <mxGeometry relative="1" as="geometry" />
        </mxCell>
        <mxCell id="1rVGfrsxhLc0o8PD9YwX-32" style="rounded=0;orthogonalLoop=1;jettySize=auto;html=1;exitX=0.5;exitY=1;exitDx=0;exitDy=0;entryX=0.5;entryY=0;entryDx=0;entryDy=0;entryPerimeter=0;startArrow=classic;startFill=1;fontColor=#000000;" parent="1" source="1rVGfrsxhLc0o8PD9YwX-4" target="1rVGfrsxhLc0o8PD9YwX-5" edge="1">
          <mxGeometry relative="1" as="geometry" />
        </mxCell>
      </root>
    </mxGraphModel>
  </diagram>
</mxfile>
